# xmcd CD database file
#
# Track frame offsets:
#	150
#	22150
#	40617
#	59347
#	79242
#	97552
#	110535
#	131487
#	151405
#	169752
#	184685
#	200850
#	217540
#	236200
#	263387
#
# Disc length: 3656 seconds
#
# Revision: 2
# Processed by: cddbd v1.5.2PL0 Copyright (c) Steve Scherf et al.
# Submitted via: CDex 1.70beta2
#
DISCID=bf0e460f
DTITLE=Luiz Carlos Borges - Luiz Carlos Borges - Do Pampa ao Pantanal
DYEAR=2002
DGENRE=Country
TTITLE0=Encontro com a Milonga
TTITLE1=Pantanal
TTITLE2=Modinha pro moda
TTITLE3=Campo Grande
TTITLE4=Vandalismo
TTITLE5=Sou Matogrossense
TTITLE6=Canto a São Borja
TTITLE7=Miranda
TTITLE8=Temo de Lima "Dos Versos" Freitas
TTITLE9=Caminhos de Toledo
TTITLE10=Sob a Aba do chapéu
TTITLE11=Fronteiras do Iguaçú
TTITLE12=Tricolor dos pampas
TTITLE13=Charla de natal
TTITLE14=En Santo Tomé
EXTD=YEAR: 2002
EXTT0=
EXTT1=
EXTT2=
EXTT3=
EXTT4=
EXTT5=
EXTT6=
EXTT7=
EXTT8=
EXTT9=
EXTT10=
EXTT11=
EXTT12=
EXTT13=
EXTT14=
PLAYORDER=
